<?xml version="1.0" encoding="UTF-8" standalone="no"?>
<!-- Created with Inkscape (http://www.inkscape.org/) -->

<svg
   version="1.1"
   id="svg2"
   width="3562.8267"
   height="700.61499"
   viewBox="0 0 3562.8267 700.615"
   sodipodi:docname="banner.svg"
   inkscape:version="1.2.2 (b0a8486541, 2022-12-01)"
   xmlns:inkscape="http://www.inkscape.org/namespaces/inkscape"
   xmlns:sodipodi="http://sodipodi.sourceforge.net/DTD/sodipodi-0.dtd"
   xmlns="http://www.w3.org/2000/svg"
   xmlns:svg="http://www.w3.org/2000/svg">
  <defs
     id="defs6">
    <clipPath
       clipPathUnits="userSpaceOnUse"
       id="clipPath18">
      <path
         d="M 0,763.961 H 2672.119 V 0 H 0 Z"
         id="path16" />
    </clipPath>
  </defs>
  <sodipodi:namedview
     id="namedview4"
     pagecolor="#ffffff"
     bordercolor="#000000"
     borderopacity="0.25"
     inkscape:showpageshadow="2"
     inkscape:pageopacity="0.0"
     inkscape:pagecheckerboard="0"
     inkscape:deskcolor="#d1d1d1"
     showgrid="false"
     inkscape:zoom="0.40698023"
     inkscape:cx="1796.156"
     inkscape:cy="512.3099"
     inkscape:window-width="1854"
     inkscape:window-height="1011"
     inkscape:window-x="66"
     inkscape:window-y="32"
     inkscape:window-maximized="1"
     inkscape:current-layer="g14">
    <inkscape:page
       x="0"
       y="0"
       id="page8"
       width="3562.8267"
       height="700.61499" />
  </sodipodi:namedview>
  <g
     id="g10"
     inkscape:groupmode="layer"
     inkscape:label="Page 1"
     transform="matrix(1.3333333,0,0,-1.3333333,0,1018.6147)">
    <g
       id="g12">
      <g
         id="g14"
         clip-path="url(#clipPath18)">
        <g
           id="g438"
           transform="translate(482.02053,76.52227)">
          <g
             id="g20"
             transform="translate(213.8438,515.9302)">
            <path
               d="m 0,0 c 0,0 -30.443,39.791 -34.183,50.739 -3.738,10.949 -8.812,32.314 -4.272,50.473 4.54,18.16 15.756,31.513 25.903,36.586 10.149,5.075 21.098,3.739 29.91,-0.8 8.813,-4.54 20.83,-12.285 24.036,-28.041 3.204,-15.756 6.943,-33.648 -1.069,-45.398 0,0 1.147,2.593 -2.671,12.284 -6.943,17.625 -14.955,26.705 -23.5,26.438 C 5.608,102.014 1.603,104.684 -2.137,95.604 -5.875,86.524 -7.744,78.246 -1.869,66.229 4.006,54.211 30.979,24.302 37.922,12.818 44.865,1.335 55.013,-17.893 52.075,-48.87 c -2.937,-30.979 -20.83,-46.2 -37.921,-47.269 -17.092,-1.068 -35.785,5.341 -48.871,24.302 -13.085,18.961 -11.483,48.87 -11.483,48.87 0,0 12.017,-29.642 20.563,-34.717 8.546,-5.073 16.482,-5.073 23.73,1.871 7.248,6.943 11.254,15.488 11.254,26.971 C 9.347,-17.358 8.328,-11.124 0,0"
               style="fill:#000000;fill-opacity:1;fill-rule:nonzero;stroke:none"
               id="path22" />
          </g>
          <g
             id="g24"
             transform="translate(336.9551,588.5679)">
            <path
               d="m 0,0 c 11.75,-3.738 19.494,-24.034 19.494,-24.034 0,0 0,22.431 -6.676,42.461 -6.676,20.029 -15.756,26.705 -25.37,29.909 -9.614,3.205 -17.892,3.205 -31.511,-6.409 -13.621,-9.614 -22.701,-25.904 -28.842,-45.933 -6.143,-20.028 -6.677,-54.211 -6.677,-54.211 0,0 7.745,-11.217 11.751,-24.836 4.005,-13.62 2.136,-40.859 2.136,-40.859 0,0 9.614,-17.091 17.358,-25.637 7.745,-8.546 34.717,-16.29 48.337,-9.346 13.619,6.943 19.228,24.835 23.5,41.392 4.273,16.558 -0.267,45.934 -0.267,45.934 0,0 -2.937,-5.075 -8.279,-18.427 -5.341,-13.353 -16.29,-20.296 -24.347,-21.097 -8.057,-0.802 -18.648,1.602 -26.926,21.631 -8.279,20.028 -5.341,43.529 0,65.428 5.34,21.898 16.218,27.233 23.767,26.972 C -3.873,2.638 0,0 0,0"
               style="fill:#000000;fill-opacity:1;fill-rule:nonzero;stroke:none"
               id="path26" />
          </g>
          <g
             id="g28"
             transform="translate(356.4492,633.1656)">
            <path
               d="m 0,0 h 64.359 c 0,0 -1.601,-7.477 -6.675,-12.551 -5.075,-5.074 -11.971,-9.881 -11.861,-26.972 0.111,-17.091 2.514,-150.35 2.514,-150.35 l 13.887,-19.495 c 0,0 -6.41,-4.766 -17.092,-4.652 -10.682,0.112 -36.586,3.584 -41.126,2.249 l 12.552,21.63 c 0,0 3.738,4.54 4.54,21.365 0.8,16.824 1.601,134.861 1.601,136.196 0,1.335 -0.533,12.551 -7.476,16.557 C 8.279,-12.017 0.802,-3.472 0,0"
               style="fill:#000000;fill-opacity:1;fill-rule:nonzero;stroke:none"
               id="path30" />
          </g>
          <g
             id="g32"
             transform="translate(426.6836,634.501)">
            <path
               d="m 0,0 c 0,0 0.151,-0.446 0.406,-1.335 1.335,-4.652 5.512,-21.42 5.737,-49.672 0.267,-33.649 -1.335,-107.621 -1.335,-107.621 0,0 -4.006,-35.251 -10.683,-43.263 0,0 3.235,-8.546 6.024,-8.546 2.789,0 33.5,1.84 40.977,2.923 7.478,1.083 24.035,1.588 28.308,-0.534 l 1.602,61.17 c 0,0 -14.687,-9.08 -23.5,-7.745 -8.813,1.335 -20.83,8.011 -20.83,22.7 0,14.687 3.472,25.402 16.023,30.326 12.551,4.925 21.097,-9.496 21.097,-9.496 l -3.472,38.989 c 0,0 -10.148,-8.546 -18.694,-6.943 -8.545,1.602 -13.352,8.546 -14.153,20.029 -0.801,11.482 0.801,24.034 13.086,26.705 12.284,2.67 16.556,1.068 22.699,-5.341 6.142,-6.41 9.079,-10.682 9.079,-10.682 0,0 3.205,42.021 0,52.656 C 72.371,4.32 64.36,0.267 0,0"
               style="fill:#000000;fill-opacity:1;fill-rule:nonzero;stroke:none"
               id="path34" />
          </g>
          <g
             id="g36"
             transform="translate(513.209,421.3941)">
            <path
               d="m 0,0 c 0,0 -1.068,24.836 0,37.12 1.068,12.284 1.869,180.307 1.869,180.307 0,0 33.382,2.623 48.604,-23.815 15.221,-26.438 31.779,-65.962 31.779,-65.962 0,0 5.607,-15.975 12.818,-17.601 0,0 2.137,10.926 0,29.619 -2.136,18.693 -6.142,63.558 -3.471,75.308 0,0 6.409,6.41 20.562,9.08 14.154,2.671 16.824,4.006 16.824,4.006 0,0 -5.34,-36.854 -5.875,-48.604 -0.534,-11.75 -4.272,-35.518 -4.272,-63.291 0,-27.773 8.546,-110.574 8.546,-110.574 0,0 -8.814,-3.99 -33.115,-2.923 0,0 -7.418,22.967 -11.587,33.114 -4.169,10.149 -12.448,26.973 -14.317,36.587 -1.869,9.613 -16.023,38.455 -19.495,44.864 -3.472,6.41 -5.875,18.16 -8.812,18.16 -2.938,0 -4.54,-5.074 -2.671,-9.08 1.87,-4.005 3.471,-59.552 3.205,-61.155 C 40.324,63.558 47.535,8.545 50.205,4.272 50.205,4.272 14.421,2.938 0,0"
               style="fill:#000000;fill-opacity:1;fill-rule:nonzero;stroke:none"
               id="path38" />
          </g>
          <g
             id="g40"
             transform="translate(733.5264,572.0113)">
            <path
               d="m 0,0 c 0,0 -9.347,20.028 -20.562,23.768 -11.217,3.738 -8.28,4.806 -16.826,2.669 -8.545,-2.135 -14.153,-8.278 -19.227,-17.09 -5.073,-8.813 -11.216,-16.825 -9.881,-37.655 1.336,-20.83 3.472,-33.381 9.347,-43.529 5.876,-10.148 8.813,-13.887 18.961,-14.154 10.148,-0.267 16.824,2.403 22.966,8.012 6.142,5.608 13.085,16.29 13.619,23.233 0,0 5.341,-18.693 1.603,-39.79 -3.738,-21.098 -15.222,-38.189 -20.296,-42.194 -5.074,-4.006 -17.625,-9.081 -27.506,-3.472 -9.882,5.607 -20.563,11.75 -29.376,31.512 -8.812,19.761 -16.29,52.609 -16.29,72.104 0,19.494 -0.267,48.068 10.148,68.899 10.415,20.83 20.296,40.058 39.523,44.063 19.229,4.006 28.041,-11.216 32.581,-22.165 C -6.676,43.262 -1.068,33.114 0,0"
               style="fill:#000000;fill-opacity:1;fill-rule:nonzero;stroke:none"
               id="path42" />
          </g>
          <g
             id="g44"
             transform="translate(737.7988,650.7911)">
            <path
               d="m 0,0 c 0,0 4.273,1.335 4.54,-43.529 0.268,-44.865 4.006,-43.53 2.137,-75.308 -1.869,-31.78 -5.621,-77.88 -3.077,-102.632 h 94.942 v 76.994 c 0,0 -7.477,-16.824 -25.369,-22.699 -17.893,-5.875 -27.774,5.875 -30.711,13.352 -2.938,7.478 -4.274,24.836 2.136,30.177 6.409,5.341 20.563,16.29 37.12,2.671 l -0.267,43.796 c 0,0 -7.744,-9.614 -27.507,-9.347 -19.761,0.268 -18.96,17.626 -18.96,17.626 0,0 -3.471,17.893 2.136,25.637 5.609,7.744 13.086,16.29 26.706,12.284 13.619,-4.005 29.109,-11.75 36.853,-26.171 l 1.869,57.153 c 0,0 -74.775,-3.209 -83.053,-2.674 C 11.217,-2.136 0,0 0,0"
               style="fill:#000000;fill-opacity:1;fill-rule:nonzero;stroke:none"
               id="path46" />
          </g>
          <g
             id="g48"
             transform="translate(867.5859,429.3219)">
            <path
               d="m 0,0 -1.067,109.86 h 57.148 l -2.67,-29.661 c 0,0 -8.012,8.279 -14.688,8.546 C 32.047,89.012 25.37,87.409 24.035,80.466 22.7,73.522 20.563,66.045 25.104,61.772 29.644,57.5 33.115,54.028 43.53,58.835 l 1.335,-22.699 c 0,0 -5.608,5.341 -10.949,4.806 C 28.575,40.408 24.569,37.204 24.302,28.925 24.035,20.646 25.638,0 25.638,0 25.638,0 20.029,-1.786 11.483,-1.252 2.938,-0.718 0,0 0,0"
               style="fill:#000000;fill-opacity:1;fill-rule:nonzero;stroke:none"
               id="path50" />
          </g>
          <g
             id="g52"
             transform="translate(977.8789,456.9117)">
            <path
               d="m 0,0 c -2.671,-4.006 -16.023,-9.614 -22.967,1.869 -6.943,11.484 -6.676,19.762 -5.608,34.45 1.068,14.688 14.03,19.228 14.03,19.228 9.223,-0.268 7.868,-1.068 12.942,-5.609 C 3.472,45.398 6.943,38.723 7.21,26.438 7.478,14.154 2.67,4.006 0,0 m 14.688,52.075 c -6.41,12.018 -13.887,16.824 -24.836,18.694 0,0 -12.819,2.67 -23.768,-8.813 -10.949,-11.483 -16.022,-25.37 -15.756,-41.66 0.267,-16.29 3.472,-35.251 13.619,-42.194 10.149,-6.944 18.961,-10.148 32.581,-7.21 13.619,2.937 19.494,17.09 22.432,28.307 2.938,11.216 2.137,40.859 -4.272,52.876"
               style="fill:#000000;fill-opacity:1;fill-rule:nonzero;stroke:none"
               id="path54" />
          </g>
          <g
             id="g56"
             transform="translate(249.6289,298.817)">
            <path
               d="m 0,0 c 0,0 -0.534,14.154 1.335,34.717 1.869,20.563 1.869,28.574 -4.54,32.313 -6.409,3.739 -16.824,-1.602 -16.824,-1.602 v 25.37 h 67.03 V 63.024 c 0,0 -6.943,6.944 -14.688,5.875 C 24.568,67.831 19.762,56.615 20.562,48.337 21.364,40.058 28.308,0 28.308,0 28.308,0 21.898,3.739 0,0"
               style="fill:#ef4430;fill-opacity:1;fill-rule:nonzero;stroke:none"
               id="path58" />
          </g>
          <g
             id="g60"
             transform="translate(305.1758,393.6207)">
            <path
               d="m 0,0 v -96.139 h 22.966 v 33.381 c 0,0 6.943,9.08 12.552,8.012 5.608,-1.068 9.88,-2.403 10.415,-12.818 0.534,-10.415 0,-24.035 0,-24.035 l 21.63,0.535 -3.738,80.115 L 63.024,3.738 45.933,0.534 c 0,0 2.136,-20.296 0.534,-26.438 -1.603,-6.142 -6.143,-14.688 -13.487,-13.619 -7.343,1.067 -11.883,4.272 -12.15,16.824 -0.268,12.551 1.869,22.966 1.869,22.966 z"
               style="fill:#ef4430;fill-opacity:1;fill-rule:nonzero;stroke:none"
               id="path62" />
          </g>
          <g
             id="g64"
             transform="translate(384.2227,397.359)">
            <path
               d="m 0,0 1.335,-98.542 55.547,4.54 c 0,0 -2.938,9.08 -3.738,21.631 0,0 -14.688,-6.943 -19.496,-5.608 -4.806,1.335 -11.75,6.944 -10.415,14.955 1.336,8.011 3.74,12.551 10.683,12.285 6.943,-0.268 10.415,-4.006 10.415,-4.006 l -1.336,17.358 c 0,0 -10.147,-3.205 -16.29,2.404 -6.142,5.608 -6.943,10.415 -5.341,14.687 1.603,4.274 4.807,10.415 15.222,9.08 10.415,-1.335 16.023,-6.142 16.023,-6.142 L 53.41,0 H 29.91 C 29.91,0 20.83,2.671 0,0"
               style="fill:#ef4430;fill-opacity:1;fill-rule:nonzero;stroke:none"
               id="path66" />
          </g>
          <g
             id="g68"
             transform="translate(562.6133,318.3121)">
            <path
               d="m 0,0 c -1.603,-10.415 -8.278,-19.762 -24.836,-20.83 -16.557,-1.068 -24.034,9.08 -30.443,17.358 -6.409,8.279 -7.745,25.37 -2.404,39.524 5.341,14.153 21.899,17.332 22.966,17.358 10.683,0.268 12.819,0 25.37,-13.619 C 3.205,26.171 1.603,10.415 0,0 M 15.919,46.734 C 3.798,74.24 -13.086,76.911 -44.864,82.696 c -31.78,5.785 -48.337,0.357 -48.337,0.357 0,0 -0.534,-153.021 0,-166.106 0.534,-13.086 -0.801,-16.557 -2.938,-26.438 -2.136,-9.881 -0.8,-26.973 -0.8,-26.973 h 49.137 c 0,0 -0.267,5.609 -0.742,14.421 -0.475,8.813 -5.134,41.394 -5.935,47.535 -0.8,6.143 2.137,21.364 2.137,21.364 14.421,-1.869 33.381,6.41 49.404,13.621 16.024,7.21 22.967,20.83 26.171,30.977 3.205,10.149 4.807,27.774 -7.314,55.28"
               style="fill:#ef4430;fill-opacity:1;fill-rule:nonzero;stroke:none"
               id="path70" />
          </g>
          <g
             id="g72"
             transform="translate(561.2783,403.6754)">
            <path
               d="m 0,0 v -7.651 c 0,0 17.893,-12.018 28.308,-42.729 10.415,-30.711 0,-54.478 0,-54.478 0,0 -11.998,-20.029 -25.895,-25.637 0,0 1.593,-26.973 -2.413,-96.673 l 99.076,1.603 -12.552,72.637 c 0,0 -11.483,-13.085 -23.767,-9.346 -12.284,3.739 -14.688,8.011 -16.024,21.097 -1.335,13.085 11.751,22.699 19.496,22.699 7.744,0 15.489,-4.807 15.489,-4.807 l -1.336,42.462 c 0,0 -11.483,-7.478 -20.563,-2.671 -9.08,4.806 -11.215,9.08 -10.281,22.165 0.935,13.086 9.213,23.767 20.162,24.035 10.949,0.267 27.774,-11.217 27.774,-11.217 0,0 1.068,42.817 -1.069,45.043 -2.136,2.226 0,3.027 -11.75,2.226 -11.75,-0.801 -23.767,0 -31.379,2.137 C 45.666,3.03 18.159,-2.577 13.353,-1.509 8.546,-0.441 0,0 0,0"
               style="fill:#ef4430;fill-opacity:1;fill-rule:nonzero;stroke:none"
               id="path74" />
          </g>
          <g
             id="g76"
             transform="translate(747.6797,269.9752)">
            <path
               d="m 0,0 c -1.602,-15.222 -13.619,-31.245 -22.432,-38.455 -8.812,-7.21 -17.091,0.267 -24.836,6.409 -7.744,6.143 -13.62,20.029 -17.358,33.916 -3.739,13.887 0.801,44.598 6.142,67.564 5.341,22.966 26.32,29.642 26.32,29.642 18.842,4.006 27.091,-24.302 30.562,-43.262 C 1.87,36.854 1.603,15.223 0,0 m 19.229,73.974 c -6.944,25.37 -13.353,61.689 -44.064,63.558 0,0 -19.235,2.136 -35.121,-15.756 -15.886,-17.892 -24.432,-41.927 -28.438,-71.837 -4.005,-29.91 0,-63.024 7.745,-87.593 7.745,-24.569 22.165,-60.888 42.461,-61.955 20.296,-1.069 37.921,14.153 44.331,24.835 6.409,10.682 19.761,41.393 19.495,73.439 -0.268,32.046 0.534,49.939 -6.409,75.309"
               style="fill:#ef4430;fill-opacity:1;fill-rule:nonzero;stroke:none"
               id="path78" />
          </g>
          <g
             id="g80"
             transform="translate(854.7676,323.3863)">
            <path
               d="m 0,0 c -4.807,-22.433 -16.022,-28.041 -28.04,-29.376 -12.018,-1.335 -20.296,4.272 -26.705,14.955 -6.409,10.682 -6.677,26.171 0,44.598 6.676,18.427 26.705,18.211 26.705,18.211 12.552,0.051 14.955,-2.189 19.762,-5.66 C -3.472,39.256 4.808,22.432 0,0 M 16.023,49.938 C 5.341,66.495 -6.676,77.178 -29.909,78.246 -53.143,79.313 -90.53,76.821 -90.53,76.821 c 0,0 -3.739,-28.752 0.801,-36.497 4.54,-7.744 12.818,-29.642 12.551,-46.467 -0.266,-16.824 0.013,-60.621 -1.595,-71.57 -1.609,-10.948 -6.416,-40.592 -16.03,-51.006 v -24.355 l 53.945,-1.549 -6.944,91.331 c 0,0 29.643,3.739 42.461,12.552 12.819,8.812 29.643,24.302 31.779,47.268 2.137,22.966 0.267,36.853 -10.415,53.41"
               style="fill:#ef4430;fill-opacity:1;fill-rule:nonzero;stroke:none"
               id="path82" />
          </g>
          <g
             id="g84"
             transform="translate(864.1143,393.0865)">
            <path
               d="m 0,0 c 0,0 21.632,-22.967 21.632,-44.865 0,-21.898 4.006,-32.847 -6.677,-53.143 -10.682,-20.296 -16.29,-19.762 -16.29,-19.762 0,0 -5.875,-66.496 -2.137,-106.287 0,0 3.205,-5.074 98.009,-5.607 0,0 4.807,68.632 1.602,82.785 0,0 -16.557,-16.331 -25.637,-17.645 -9.08,-1.315 -19.495,-1.315 -19.495,-1.315 0,0 -10.948,7.478 -10.948,30.443 0,22.967 9.346,90.264 8.812,107.623 C 48.337,-10.415 48.337,0 48.337,0 Z"
               style="fill:#ef4430;fill-opacity:1;fill-rule:nonzero;stroke:none"
               id="path86" />
          </g>
          <g
             id="g88"
             transform="translate(965.5947,391.2174)">
            <path
               d="m 0,0 c 0,0 -4.273,-72.104 -1.068,-110.293 3.204,-38.188 -2.137,-61.918 4.006,-114.145 0,0 22.699,0.153 29.642,1.602 6.943,1.45 51.274,-3.357 62.223,-2.823 l -1.869,70.502 c 0,0 -12.819,-14.155 -26.171,-12.284 -13.353,1.869 -24.302,8.812 -23.501,22.699 0.801,13.887 7.211,27.506 18.426,27.239 11.216,-0.268 20.563,-6.677 20.563,-6.677 0,0 -3.472,34.451 -2.403,41.928 0,0 -12.819,-8.012 -24.836,-3.739 -12.017,4.273 -13.353,15.08 -10.682,27.836 2.671,12.756 10.415,24.507 25.904,21.035 15.489,-3.472 26.705,-17.092 26.705,-17.092 0,0 1.87,31.779 -1.068,54.212 z"
               style="fill:#ef4430;fill-opacity:1;fill-rule:nonzero;stroke:none"
               id="path90" />
          </g>
          <g
             id="g92"
             transform="translate(1049.1816,501.776)">
            <path
               d="m 0,0 c -0.534,-11.482 -5.875,-14.501 -10.148,-17.665 -4.273,-3.165 -10.682,-0.761 -11.484,2.977 -0.801,3.74 -2.136,25.371 -2.136,25.371 0,0 -1.869,4.272 2.404,4.272 h 14.421 c 0,0 7.477,-3.472 6.943,-14.955 m 21.631,-10.989 c 2.403,10.722 2.403,28.347 -5.341,36.893 -7.744,8.546 -16.558,9.881 -32.848,10.149 -16.29,0.266 -27.773,-4.006 -27.773,-4.006 l 1.068,-105.853 h 21.365 l -1.335,32.681 c 0,0 -1.069,4.005 1.335,3.738 2.403,-0.267 5.875,-8.011 9.346,-14.153 3.472,-6.143 9.614,-20.914 9.614,-20.914 l 20.831,-1.352 c 0,0 -12.552,21.198 -15.223,26.004 -2.67,4.807 -4.539,11.216 -4.539,11.216 0,0 21.097,14.874 23.5,25.597"
               style="fill:#000000;fill-opacity:1;fill-rule:nonzero;stroke:none"
               id="path94" />
          </g>
          <g
             id="g172"
             transform="translate(1154.7148,411.7584)">
            <path
               d="m 0,0 c 0,0 3.915,-47.363 11.352,-68.109 7.437,-20.746 11.351,-31.316 11.351,-31.316 0,0 34.446,0.783 60.281,6.655 25.835,5.872 47.755,7.829 61.455,7.829 13.702,0 21.921,-1.174 27.792,-4.698 5.873,-3.522 10.961,-6.262 15.267,0.392 4.306,6.654 21.92,47.755 20.355,57.933 0,0 -2.349,2.348 -14.484,-11.352 -12.135,-13.7 -26.617,-14.875 -26.617,-14.875 0,0 30.141,23.095 36.012,32.489 5.872,9.395 6.654,17.224 8.22,27.792 1.566,10.569 3.131,17.614 10.96,27.792 7.828,10.177 19.18,25.835 14.092,27.401 -5.089,1.565 -8.221,4.929 -36.013,-16.716 C 172.231,19.572 171.841,12.135 162.837,3.914 153.834,-4.306 155.886,-7.046 118.652,-9.003 81.419,-10.96 63.413,-2.349 27.4,-0.782 -8.611,0.783 0,0 0,0"
               style="fill:#000000;fill-opacity:1;fill-rule:nonzero;stroke:none"
               id="path174" />
          </g>
          <g
             id="g176"
             transform="translate(1371.5703,400.4068)">
            <path
               d="m 0,0 c 3.201,22.498 4.501,30.141 11.938,40.514 7.438,10.373 14.679,21.333 12.722,27.4 -1.957,6.067 -6.263,5.676 -16.049,5.284 0,0 1.957,20.159 -0.587,26.422 0,0 17.419,3.327 35.621,1.37 0,0 0.391,-31.706 3.131,-36.011 0,0 -13.308,-16.636 -14.678,-27.401 -1.37,-10.765 -1.762,-15.657 4.11,-22.899 0,0 -3.719,-15.853 0.587,-22.312 4.306,-6.459 8.416,-8.22 8.416,-8.22 0,0 -1.37,-10.764 3.719,-18.006 5.088,-7.242 -0.588,-10.177 4.501,-16.831 5.089,-6.655 11.548,-5.089 11.351,-5.676 -0.195,-0.588 6.068,-18.007 8.808,-33.076 2.74,-15.071 10.177,-40.906 15.462,-54.606 5.284,-13.7 6.262,-18.397 3.327,-23.291 -2.936,-4.892 -6.654,-5.284 -18.984,-5.871 -12.332,-0.587 -115.474,-0.783 -115.474,-0.783 0,0 -10.96,2.348 -8.416,13.309 2.544,10.96 25.639,74.959 35.425,103.926 C -5.284,-27.792 -1.092,-7.674 0,0"
               style="fill:#000000;fill-opacity:1;fill-rule:nonzero;stroke:none"
               id="path178" />
          </g>
          <g
             id="g180"
             transform="translate(1413.8457,450.2496)">
            <path
               d="m 0,0 c 0,0 -9.265,-14.137 -6.394,-23.443 2.871,-9.307 10.047,-6.175 11.744,-4.349 1.695,1.827 11.481,13.961 12.786,22.051 C 19.44,2.349 20.093,9.525 14.353,9.916 8.611,10.308 2.376,4.168 0,0"
               style="fill:#000000;fill-opacity:1;fill-rule:nonzero;stroke:none"
               id="path182" />
          </g>
          <g
             id="g184"
             transform="translate(1432.8721,415.5426)">
            <path
               d="m 0,0 c 0,0 1.197,9.916 -2.456,10.438 -3.653,0.522 -9.134,-3.653 -12.917,-11.613 -3.784,-7.959 -6.264,-14.874 -3.915,-18.788 2.349,-3.915 10.178,-0.391 13.309,4.175 C -2.848,-11.222 -0.073,-5.84 0,0"
               style="fill:#000000;fill-opacity:1;fill-rule:nonzero;stroke:none"
               id="path186" />
          </g>
          <g
             id="g188"
             transform="translate(1437.4619,397.6666)">
            <path
               d="m 0,0 c 0,0 -2.15,7.307 -6.751,2.609 -4.601,-4.696 -9.167,-12.786 -9.429,-19.832 -0.26,-7.046 -0.521,-8.089 2.611,-8.35 3.131,-0.261 9.393,5.479 11.351,11.351 C -0.261,-8.351 0.913,-3.393 0,0"
               style="fill:#000000;fill-opacity:1;fill-rule:nonzero;stroke:none"
               id="path190" />
          </g>
          <g
             id="g192"
             transform="translate(1430.2852,368.7008)">
            <path
               d="m 0,0 c -3.716,-7.553 -3.222,-15.136 -0.828,-16.962 2.394,-1.827 6.7,-3.001 9.57,3.523 2.871,6.524 2.48,15.901 0.653,18.258 C 7.568,7.176 4.045,8.22 0,0"
               style="fill:#000000;fill-opacity:1;fill-rule:nonzero;stroke:none"
               id="path194" />
          </g>
          <g
             id="g196"
             transform="translate(1489.3926,612.4341)">
            <path
               d="m 0,0 c 0,0 -2.088,3.915 -13.57,3.393 -11.482,-0.522 -24.4,-1.697 -30.923,1.565 -6.525,3.262 -14.353,8.09 -15.267,12.004 -0.913,3.914 0,8.221 15.658,13.048 15.658,4.828 29.749,8.481 40.057,12.265 10.308,3.784 16.049,3.392 19.441,2.349 3.392,-1.044 7.959,-0.392 11.482,0.261 3.523,0.652 7.568,1.566 10.961,-5.089 C 41.23,33.142 52.191,12.265 51.017,3.523 49.843,-5.219 49.06,-12.135 37.447,-33.924 25.834,-55.714 24.529,-58.454 13.438,-69.937 2.349,-81.418 -9.655,-95.641 -8.481,-107.253 c 1.174,-11.612 12.787,-80.749 18.266,-111.29 5.481,-30.54 12.787,-67.727 15.136,-82.471 2.349,-14.744 13.831,-52.191 16.44,-65.369 2.61,-13.179 5.35,-36.665 5.481,-45.668 0,0 -24.791,-0.391 -69.284,-13.439 -44.494,-13.048 -84.55,-20.355 -108.95,-17.354 0,0 -0.522,39.275 3.914,49.061 0,0 75.808,0 90.291,1.826 14.484,1.827 19.311,5.741 20.876,8.742 1.567,3.001 1.436,11.221 -1.826,22.572 -3.261,11.353 -17.484,54.932 -21.398,69.024 -3.914,14.092 -5.089,19.963 -4.045,33.925 1.044,13.961 0.131,20.615 -6.654,24.529 0,0 3.264,14.223 1.958,19.312 -1.306,5.087 -4.829,8.088 -4.829,8.088 0,0 2.979,10.047 0.446,15.267 -2.533,5.219 -4.799,7.437 -3.862,12.134 0.937,4.697 5.112,12.918 3.807,19.441 -1.305,6.525 -3.392,10.83 -7.567,11.091 -4.176,0.261 -6.002,1.441 -6.525,8.876 -0.521,7.434 -1.333,7.434 -1.449,30.79 0,0 -18.774,4.044 -44.218,-0.914 0,0 2.218,-19.702 0.653,-25.052 -1.566,-5.349 -3.262,-9.655 -7.568,-11.743 0,0 0.783,22.573 -1.175,34.055 -1.957,11.482 -7.045,23.356 -15.788,37.056 -8.742,13.701 -18.135,28.445 -21.136,41.231 -3.001,12.787 -2.349,27.531 -2.349,27.531 0,0 3.523,-10.308 9.133,-15.918 5.61,-5.611 9.525,-8.742 16.18,-7.829 6.654,0.913 18.527,8.873 26.356,8.481 7.829,-0.391 12.656,-2.218 18.789,-0.652 6.133,1.566 11.873,4.175 11.873,4.175 0,0 -7.436,-22.964 -6.392,-33.533 1.043,-10.569 4.305,-27.009 4.305,-27.009 0,0 -0.522,31.706 3.001,40.187 3.523,8.482 7.176,17.485 21.659,23.095 14.484,5.61 16.31,4.828 28.966,6.916 C -13.31,-6.002 1.511,-1.363 0,0"
               style="fill:#ef4430;fill-opacity:1;fill-rule:nonzero;stroke:none"
               id="path198" />
          </g>
          <g
             id="g200"
             transform="translate(1456.7725,651.317)">
            <path
               d="m 0,0 36.273,10.96 c 0,0 0.13,18.006 -12.395,22.442 C 11.352,37.839 4.958,36.012 0.783,33.794 -3.393,31.576 -5.741,27.531 -3.914,16.701 -2.088,5.872 0,0 0,0"
               style="fill:#ef4430;fill-opacity:1;fill-rule:nonzero;stroke:none"
               id="path202" />
          </g>
          <g
             id="g204"
             transform="translate(1451.0313,649.751)">
            <path
               d="m 0,0 c 0,0 -16.049,-4.697 -21.137,-9.133 -5.089,-4.437 -9.917,-7.177 -4.436,-13.962 5.479,-6.784 19.05,-16.962 19.05,-16.962 0,0 -4.045,-6.132 -12.135,-4.958 -8.09,1.174 -15.397,13.309 -16.179,18.789 -0.783,5.48 -3.001,16.049 -6.524,25.834 -3.523,9.787 -6.785,21.138 0.131,26.096 6.915,4.959 14.221,5.481 23.094,3.262 C -9.264,26.748 -4.827,17.615 -3.522,13.439 -2.218,9.264 0,0 0,0"
               style="fill:#ef4430;fill-opacity:1;fill-rule:nonzero;stroke:none"
               id="path206" />
          </g>
          <g
             id="g208"
             transform="translate(1409.0176,605.5191)">
            <path
               d="m 0,0 c 0,0 2.311,17.354 -2.759,34.055 -5.07,16.701 -10.158,28.423 -17.987,29.803 -7.829,1.381 -18.398,-5.926 -19.442,-14.015 -1.043,-8.09 -1.435,-19.05 2.741,-31.315 4.175,-12.265 7.176,-22.573 15.005,-25.574 7.829,-3.001 14.613,-1.565 17.484,0.261 C -2.088,-4.958 -1.044,-3.393 0,0"
               style="fill:#ef4430;fill-opacity:1;fill-rule:nonzero;stroke:none"
               id="path210" />
          </g>
          <g
             id="g212"
             transform="translate(1368.1377,595.8638)">
            <path
               d="m 0,0 c -0.277,16.831 -1.525,34.577 -5.831,42.405 -4.306,7.829 -6.524,9.395 -9.134,8.742 -2.609,-0.652 -17.353,-7.045 -18.137,-17.223 -0.782,-10.177 1.436,-20.093 2.349,-22.834 0.913,-2.74 6.915,-17.092 16.18,-17.614 C -5.31,-7.046 0.041,-2.476 0,0"
               style="fill:#ef4430;fill-opacity:1;fill-rule:nonzero;stroke:none"
               id="path214" />
          </g>
        </g>
      </g>
    </g>
  </g>
</svg>
